<svg width="61" height="61" viewBox="0 0 61 61" fill="none" xmlns="http://www.w3.org/2000/svg">
<g clip-path="url(#clip0_3208_321)">
<path d="M37.3994 24.8339L28.2341 33.4907L23.8355 28.9654C23.3479 28.4633 22.5449 28.4519 22.0433 28.9395C21.5413 29.4277 21.5299 30.2301 22.0175 30.7322L27.2931 36.1478C27.7833 36.6409 28.5753 36.6578 29.0858 36.1856L39.1667 26.6772C39.4115 26.4462 39.5546 26.1274 39.564 25.7913C39.5734 25.4551 39.4488 25.1288 39.2174 24.8845C38.7268 24.3745 37.9178 24.3522 37.3994 24.8339Z" fill="black"/>
<path d="M30.5984 11.5112C20.1237 11.5112 11.6064 20.0285 11.6064 30.5032C11.6064 40.9785 20.1237 49.4957 30.5984 49.4957C41.0737 49.4957 49.5909 40.9785 49.5909 30.5032C49.5909 20.0285 41.0737 11.5112 30.5984 11.5112ZM30.5984 46.9532C21.522 46.9532 14.1489 39.5672 14.1489 30.5032C14.1489 21.4392 21.522 14.0537 30.5984 14.0537C39.6838 14.0537 47.0485 21.4184 47.0485 30.5032C47.0485 39.588 39.6838 46.9532 30.5984 46.9532Z" fill="black"/>
<path d="M56.7354 23.5114L57.155 15.9729C57.1843 15.4669 56.9092 14.9917 56.4559 14.7653L49.7437 11.3712L46.3496 4.65899C46.1187 4.20959 45.6464 3.93597 45.1419 3.95981L37.5905 4.367L31.2979 0.209679C30.8738 -0.0698929 30.3241 -0.0698929 29.8995 0.209679L23.6069 4.367L16.0689 3.94739C15.5624 3.9176 15.0877 4.1927 14.8613 4.64657L11.4667 11.3588L4.75497 14.7529C4.30508 14.9833 4.03196 15.4555 4.0558 15.9605L4.4749 23.499L0.318077 29.7916C0.0385055 30.2157 0.0385055 30.7654 0.318077 31.19L4.46249 37.495L4.04288 45.0335C4.01359 45.5395 4.28819 46.0147 4.74206 46.2411L11.4543 49.6352L14.8484 56.3474C15.0788 56.7973 15.551 57.0704 16.056 57.0466L23.5945 56.627L29.8871 60.7838C30.3087 61.0723 30.8639 61.0723 31.2855 60.7838L37.5781 56.627L45.1166 57.0466C45.6226 57.0759 46.0973 56.8008 46.3242 56.3474L49.7183 49.6352L56.4305 46.2411C56.8799 46.0102 57.1535 45.5385 57.1297 45.0335L56.7101 37.495L60.8669 31.2024C61.1465 30.7783 61.1465 30.2281 60.8669 29.804L56.7354 23.5114ZM54.3707 36.4527C54.2158 36.6801 54.1438 36.9537 54.1676 37.2283L54.5614 44.3596L48.2182 47.563C47.9763 47.6842 47.7802 47.8808 47.659 48.1227L44.4551 54.4659L37.3238 54.0721C37.0507 54.0622 36.7811 54.1327 36.5482 54.2752L30.5987 58.2036L24.6497 54.2752C24.4432 54.1357 24.1998 54.0602 23.9506 54.0592H23.887L16.7552 54.4535L13.5518 48.1098C13.4306 47.8679 13.2345 47.6718 12.9922 47.5506L6.636 44.3596L7.03028 37.2283C7.04021 36.9552 6.9692 36.6856 6.82668 36.4527L2.89878 30.5032L6.82668 24.5537C6.98211 24.3268 7.05411 24.0527 7.03028 23.7786L6.636 16.6468L12.9797 13.4434C13.2216 13.3222 13.4177 13.1261 13.5389 12.8842L16.7423 6.54051L23.8741 6.93479C24.1467 6.94422 24.4164 6.87371 24.6497 6.73119L30.5987 2.80329L36.5482 6.73119C36.7756 6.88662 37.0497 6.95862 37.3238 6.93479L44.4551 6.54051L47.659 12.8842C47.7802 13.1261 47.9763 13.3222 48.2182 13.4434L54.5614 16.6468L54.1676 23.7786C54.1577 24.0512 54.2287 24.3209 54.3707 24.5537L58.2991 30.5032L54.3707 36.4527Z" fill="black"/>
</g>
<defs>
<clipPath id="clip0_3208_321">
<rect width="61" height="61" fill="white"/>
</clipPath>
</defs>
</svg>
