<svg width="63" height="63" viewBox="0 0 63 63" fill="none" xmlns="http://www.w3.org/2000/svg">
<path d="M24.7772 43.7903C24.4412 43.7903 24.1052 43.6617 23.8479 43.407L6.2158 25.7723C4.1683 23.7248 4.1683 20.3937 6.2158 18.3462C8.26855 16.2987 11.5971 16.3039 13.6393 18.3462L29.4182 34.125C29.9301 34.6369 29.9301 35.469 29.4182 35.9809C28.9063 36.4928 28.0742 36.4928 27.5623 35.9809L11.7834 20.202C10.7649 19.1835 9.10068 19.1809 8.07168 20.202C7.57818 20.6982 7.30255 21.357 7.30255 22.0579C7.30255 22.7614 7.57555 23.4203 8.07168 23.9164L25.7064 41.5485C26.2183 42.0604 26.2183 42.8925 25.7064 43.4044C25.4492 43.6617 25.1132 43.7903 24.7772 43.7903Z" fill="black"/>
<path d="M34.059 30.7963C33.723 30.7963 33.387 30.6677 33.1298 30.4131L15.4977 12.7783C14.4713 11.752 12.8097 11.752 11.7833 12.7783C11.2898 13.2745 11.0142 13.9333 11.0142 14.6342C11.0142 15.3351 11.2872 15.994 11.7833 16.4901L13.6392 18.346C14.151 18.8578 14.151 19.69 13.6392 20.2018C13.1273 20.7137 12.2952 20.7137 11.7833 20.2018L9.92741 18.346C8.93516 17.3537 8.38916 16.036 8.38916 14.6342C8.38916 13.2325 8.93516 11.9147 9.92741 10.9225C11.9093 8.94058 15.3664 8.93533 17.3535 10.9225L34.9856 28.5572C35.4975 29.0691 35.4975 29.9012 34.9856 30.4131C34.7284 30.6703 34.395 30.7963 34.059 30.7963Z" fill="black"/>
<path d="M39.6293 25.229C39.2933 25.229 38.9573 25.1004 38.7001 24.8457L24.7771 10.9227C23.7507 9.89636 22.0917 9.89636 21.0653 10.9227C20.0416 11.9465 20.0416 13.6107 21.0653 14.6345C21.5772 15.1464 21.5772 15.9785 21.0653 16.4904C20.5534 17.0022 19.7213 17.0022 19.2094 16.4904C17.1646 14.4455 17.1646 11.1117 19.2094 9.06686C21.2543 7.02198 24.5881 7.02198 26.6329 9.06686L40.5559 22.9899C41.0678 23.5017 41.0678 24.3339 40.5559 24.8457C40.3013 25.1004 39.9653 25.229 39.6293 25.229Z" fill="black"/>
<path d="M38.1962 59.4667C37.3115 59.4667 36.4164 59.367 35.5292 59.1648L13.4267 54.0986C12.4712 53.8991 11.5813 53.4108 10.8568 52.6863C9.86454 51.6941 9.31592 50.3737 9.31592 48.9746C9.31592 47.5728 9.86454 46.2551 10.8568 45.2628C11.5393 44.5803 12.3688 44.1105 13.2639 43.8926C13.2902 43.8821 13.3164 43.8768 13.3427 43.8689L24.4727 41.1993C25.1788 41.0234 25.8875 41.4671 26.0555 42.1706C26.2235 42.8767 25.7878 43.5828 25.0843 43.7534L14.0304 46.4047C13.9963 46.4152 13.9622 46.4257 13.9254 46.4336C13.4844 46.5307 13.0644 46.7696 12.7127 47.1213C12.2165 47.6175 11.9409 48.2763 11.9409 48.9772C11.9409 49.6781 12.2139 50.3369 12.7127 50.8331C13.0618 51.1822 13.4949 51.429 13.9307 51.5261C13.949 51.5287 13.9648 51.5313 13.9805 51.5366L36.1172 56.6107C39.2225 57.3221 42.4172 56.4033 44.6668 54.1511L55.4083 43.4069C57.1434 41.6718 58.0989 39.3644 58.0989 36.9101C58.0989 34.4557 57.1434 32.1509 55.4083 30.4132L32.2059 7.21082C31.1795 6.18445 29.5205 6.18445 28.4942 7.21082C27.4704 8.23457 27.4704 9.89882 28.4942 10.9226C29.006 11.4344 29.006 12.2666 28.4942 12.7784C27.9823 13.2903 27.1502 13.2903 26.6383 12.7784C24.5934 10.7336 24.5934 7.39982 26.6383 5.35495C28.6832 3.31007 32.0169 3.31007 34.0618 5.35495L57.2642 28.5573C59.4981 30.7886 60.7239 33.7522 60.7239 36.9101C60.7239 40.068 59.4954 43.0316 57.2642 45.2628L46.5227 56.007C44.2704 58.2513 41.2884 59.4667 38.1962 59.4667Z" fill="black"/>
</svg>
