<svg width="78" height="78" viewBox="0 0 78 78" fill="none" xmlns="http://www.w3.org/2000/svg">
<path d="M63.6608 50.3489L57.7653 46.1564C58.7554 42.5157 58.7498 38.676 57.749 35.0382L63.6641 30.8977L58.9418 22.7272L52.3638 25.7367C49.705 23.0587 46.3759 21.1439 42.7243 20.1922L42.097 12.9999H32.6525L32.0253 20.1922C28.3744 21.1452 25.0464 23.0612 22.389 25.7399L15.8078 22.7304L11.0888 30.9009L17.0038 35.0414C16.0025 38.6779 15.9958 42.5165 16.9843 46.1564L11.0888 50.3489L15.8078 58.4804L22.389 55.4677C25.0468 58.1452 28.3748 60.0601 32.0253 61.0122L32.6525 68.2044H42.097L42.7243 61.0122C46.3748 60.0599 49.7027 58.1451 52.3605 55.4677L58.9418 58.4804L63.6641 50.3522L63.6608 50.3489ZM43.891 9.70117C44.3094 9.70073 44.7118 9.86164 45.0145 10.1504C45.3171 10.4392 45.4968 10.8335 45.516 11.2514L46.0945 17.8652C48.497 18.7807 50.7383 20.0731 52.7343 21.6937L58.7468 18.8889C59.1182 18.6979 59.5488 18.6571 59.9494 18.7751C60.35 18.8931 60.6898 19.1608 60.8983 19.5227L67.4145 30.8002C67.6239 31.1617 67.686 31.5899 67.588 31.996C67.49 32.4021 67.2393 32.7548 66.888 32.9809L61.4475 36.7899C61.8635 39.3834 61.8506 41.9672 61.4508 44.4567L66.888 48.2592C67.2402 48.4854 67.4914 48.8387 67.5895 49.2455C67.6876 49.6524 67.6249 50.0814 67.4145 50.4432L60.8983 61.6784C60.6898 62.0403 60.35 62.308 59.9494 62.426C59.5488 62.544 59.1182 62.5032 58.7468 62.3122L52.7343 59.5074C50.7778 61.0999 48.5483 62.3999 46.0945 63.3392L45.516 69.9529C45.496 70.3702 45.316 70.7638 45.0134 71.0519C44.7108 71.3399 44.3088 71.5004 43.891 71.4999H30.8585C30.4408 71.5004 30.0388 71.3399 29.7362 71.0519C29.4336 70.7638 29.2536 70.3702 29.2335 69.9529L28.655 63.3392C26.2524 62.4225 24.0111 61.129 22.0153 59.5074L16.0028 62.3122C15.6315 62.5045 15.2004 62.5463 14.799 62.4289C14.3977 62.3114 14.0571 62.0438 13.848 61.6817L7.33504 50.4399C7.12567 50.0784 7.06356 49.6502 7.1616 49.2441C7.25964 48.838 7.5103 48.4853 7.86154 48.2592L13.2988 44.4534C12.8916 41.9141 12.8916 39.326 13.2988 36.7867L7.8648 32.9809C7.51441 32.7548 7.26435 32.4027 7.16635 31.9974C7.06835 31.5921 7.12991 31.1646 7.33829 30.8034L13.8448 19.5227C14.0533 19.16 14.3937 18.8917 14.7951 18.7736C15.1964 18.6556 15.6279 18.6969 15.9995 18.8889L22.012 21.6937C24.008 20.0731 26.2493 18.7807 28.6518 17.8652L29.2303 11.2514C29.2495 10.8335 29.4292 10.4392 29.7319 10.1504C30.0346 9.86164 30.437 9.70073 30.8553 9.70117H43.8878H43.891ZM37.3748 29.2499C40.3916 29.2499 43.2849 30.4484 45.4181 32.5816C47.5514 34.7148 48.7498 37.6081 48.7498 40.6249C48.7498 43.6418 47.5514 46.535 45.4181 48.6683C43.2849 50.8015 40.3916 51.9999 37.3748 51.9999C34.358 51.9999 31.4647 50.8015 29.3315 48.6683C27.1982 46.535 25.9998 43.6418 25.9998 40.6249C25.9998 37.6081 27.1982 34.7148 29.3315 32.5816C31.4647 30.4484 34.358 29.2499 37.3748 29.2499ZM37.3748 32.4999C35.2199 32.4999 33.1533 33.3559 31.6296 34.8797C30.1058 36.4034 29.2498 38.47 29.2498 40.6249C29.2498 42.7798 30.1058 44.8464 31.6296 46.3702C33.1533 47.8939 35.2199 48.7499 37.3748 48.7499C39.5297 48.7499 41.5963 47.8939 43.12 46.3702C44.6438 44.8464 45.4998 42.7798 45.4998 40.6249C45.4998 38.47 44.6438 36.4034 43.12 34.8797C41.5963 33.3559 39.5297 32.4999 37.3748 32.4999Z" fill="black"/>
</svg>
