<svg width="61" height="63" viewBox="0 0 61 63" fill="none" xmlns="http://www.w3.org/2000/svg">
<path d="M56.6608 41.3489L50.7653 37.1564C51.7554 33.5157 51.7498 29.676 50.749 26.0382L56.6641 21.8977L51.9418 13.7272L45.3638 16.7367C42.705 14.0587 39.3759 12.1439 35.7243 11.1922L35.097 3.99992H25.6525L25.0253 11.1922C21.3744 12.1452 18.0464 14.0612 15.389 16.7399L8.80779 13.7304L4.08879 21.9009L10.0038 26.0414C9.00254 29.6779 8.9958 33.5165 9.98429 37.1564L4.08879 41.3489L8.80779 49.4804L15.389 46.4677C18.0468 49.1452 21.3748 51.0601 25.0253 52.0122L25.6525 59.2044H35.097L35.7243 52.0122C39.3748 51.0599 42.7027 49.1451 45.3605 46.4677L51.9418 49.4804L56.6641 41.3522L56.6608 41.3489ZM36.891 0.701173C37.3094 0.70073 37.7118 0.861636 38.0145 1.1504C38.3171 1.43916 38.4968 1.83353 38.516 2.25142L39.0945 8.86517C41.497 9.78072 43.7383 11.0731 45.7343 12.6937L51.7468 9.88892C52.1182 9.69785 52.5488 9.65709 52.9494 9.77509C53.35 9.8931 53.6898 10.1608 53.8983 10.5227L60.4145 21.8002C60.6239 22.1617 60.686 22.5899 60.588 22.996C60.49 23.4021 60.2393 23.7548 59.888 23.9809L54.4475 27.7899C54.8635 30.3834 54.8506 32.9672 54.4508 35.4567L59.888 39.2592C60.2402 39.4854 60.4914 39.8387 60.5895 40.2455C60.6876 40.6524 60.6249 41.0814 60.4145 41.4432L53.8983 52.6784C53.6898 53.0403 53.35 53.308 52.9494 53.426C52.5488 53.544 52.1182 53.5032 51.7468 53.3122L45.7343 50.5074C43.7778 52.0999 41.5483 53.3999 39.0945 54.3392L38.516 60.9529C38.496 61.3702 38.316 61.7638 38.0134 62.0519C37.7108 62.3399 37.3088 62.5004 36.891 62.4999H23.8585C23.4408 62.5004 23.0388 62.3399 22.7362 62.0519C22.4336 61.7638 22.2536 61.3702 22.2335 60.9529L21.655 54.3392C19.2524 53.4225 17.0111 52.129 15.0153 50.5074L9.00279 53.3122C8.6315 53.5045 8.20035 53.5463 7.79903 53.4289C7.39771 53.3114 7.0571 53.0438 6.84805 52.6817L0.335045 41.4399C0.125673 41.0784 0.0635602 40.6502 0.1616 40.2441C0.25964 39.838 0.510301 39.4853 0.861545 39.2592L6.2988 35.4534C5.89162 32.9141 5.89162 30.326 6.2988 27.7867L0.864795 23.9809C0.514412 23.7548 0.264349 23.4027 0.166348 22.9974C0.0683475 22.5921 0.129909 22.1646 0.338295 21.8034L6.8448 10.5227C7.05331 10.16 7.39369 9.89166 7.79506 9.77361C8.19643 9.65557 8.62786 9.69687 8.99955 9.88892L15.012 12.6937C17.008 11.0731 19.2493 9.78072 21.6518 8.86517L22.2303 2.25142C22.2495 1.83353 22.4292 1.43916 22.7319 1.1504C23.0346 0.861636 23.437 0.70073 23.8553 0.701173H36.8878H36.891ZM30.3748 20.2499C33.3916 20.2499 36.2849 21.4484 38.4181 23.5816C40.5514 25.7148 41.7498 28.6081 41.7498 31.6249C41.7498 34.6418 40.5514 37.535 38.4181 39.6683C36.2849 41.8015 33.3916 42.9999 30.3748 42.9999C27.358 42.9999 24.4647 41.8015 22.3315 39.6683C20.1982 37.535 18.9998 34.6418 18.9998 31.6249C18.9998 28.6081 20.1982 25.7148 22.3315 23.5816C24.4647 21.4484 27.358 20.2499 30.3748 20.2499ZM30.3748 23.4999C28.2199 23.4999 26.1533 24.3559 24.6296 25.8797C23.1058 27.4034 22.2498 29.47 22.2498 31.6249C22.2498 33.7798 23.1058 35.8464 24.6296 37.3702C26.1533 38.8939 28.2199 39.7499 30.3748 39.7499C32.5297 39.7499 34.5963 38.8939 36.12 37.3702C37.6438 35.8464 38.4998 33.7798 38.4998 31.6249C38.4998 29.47 37.6438 27.4034 36.12 25.8797C34.5963 24.3559 32.5297 23.4999 30.3748 23.4999Z" fill="black"/>
</svg>
